<?xml version="1.0" encoding="utf-8"?>
<!-- Generator: Adobe Illustrator 19.0.0, SVG Export Plug-In . SVG Version: 6.00 Build 0)  -->
<svg version="1.1" id="Layer_1" xmlns="http://www.w3.org/2000/svg" xmlns:xlink="http://www.w3.org/1999/xlink" x="0px" y="0px"
	 width="18px" height="18px" viewBox="0 0 18 18" style="enable-background:new 0 0 18 18;" xml:space="preserve">
<style type="text/css">
	.st0{fill:#FFFFFF;}
</style>
<g>
	<path class="st0" d="M17.2,14H0.8c-0.2,0-0.4,0.1-0.5,0.2C0.1,14.4,0,14.5,0,14.7v1.5c0,0.2,0.1,0.4,0.2,0.5
		C0.4,16.9,0.5,17,0.8,17h16.5c0.2,0,0.4-0.1,0.5-0.2c0.1-0.1,0.2-0.3,0.2-0.5v-1.5c0-0.2-0.1-0.4-0.2-0.5
		C17.6,14.1,17.5,14,17.2,14L17.2,14z M17.2,14"/>
	<path class="st0" d="M17.8,2.2C17.6,2.1,17.5,2,17.2,2H0.8C0.5,2,0.4,2.1,0.2,2.2C0.1,2.4,0,2.5,0,2.7v1.5c0,0.2,0.1,0.4,0.2,0.5
		C0.4,4.9,0.5,5,0.8,5h16.5c0.2,0,0.4-0.1,0.5-0.2C17.9,4.6,18,4.5,18,4.3V2.7C18,2.5,17.9,2.4,17.8,2.2L17.8,2.2z M17.8,2.2"/>
	<path class="st0" d="M17.2,8H0.8C0.5,8,0.4,8.1,0.2,8.2C0.1,8.4,0,8.5,0,8.7v1.5c0,0.2,0.1,0.4,0.2,0.5C0.4,10.9,0.5,11,0.8,11
		h16.5c0.2,0,0.4-0.1,0.5-0.2c0.1-0.1,0.2-0.3,0.2-0.5V8.7c0-0.2-0.1-0.4-0.2-0.5C17.6,8.1,17.5,8,17.2,8L17.2,8z M17.2,8"/>
</g>
</svg>
