<?xml version="1.0" encoding="utf-8"?>
<!-- Generator: Adobe Illustrator 19.0.0, SVG Export Plug-In . SVG Version: 6.00 Build 0)  -->
<svg version="1.1" id="Layer_1" xmlns="http://www.w3.org/2000/svg" xmlns:xlink="http://www.w3.org/1999/xlink" x="0px" y="0px"
	 width="40px" height="36px" viewBox="0 0 40 36" style="enable-background:new 0 0 40 36;" xml:space="preserve">
<style type="text/css">
	.st0{fill:#5EBE97;}
	.st1{fill:#FFFFFF;}
</style>
<g>
	<path class="st0" d="M20,0.2C9.3,0.2,0,7.9,0,18.5s9.3,17.2,20,17.2c10.7,0,20-6.6,20-17.2S30.7,0.2,20,0.2z"/>
	<path class="st1" d="M13.6,2.3c0.9,0.2,1.7,0.6,2.4,1.3c2.1,2.3,1.4,6.5-1.7,9.4c-3.1,2.9-7.3,3.4-9.5,1.2
		c-1.7-1.8-1.6-4.9,0.1-7.5c-3.1,3.6-3.6,8.3-1.1,10.9c2.7,2.9,8.1,2.2,12.1-1.5c3.9-3.7,4.9-9.1,2.2-12C16.9,2.9,15.3,2.3,13.6,2.3
		z"/>
	<path class="st1" d="M35.2,14.2c-2.1,2.3-6.4,1.8-9.5-1.2c-3.1-2.9-3.9-7.1-1.7-9.4c0.6-0.7,1.5-1.1,2.4-1.3
		c-1.7,0-3.3,0.6-4.4,1.8c-2.7,2.9-1.8,8.3,2.2,12c3.9,3.7,9.3,4.4,12.1,1.5c2.5-2.6,1.9-7.3-1.1-10.9C36.8,9.3,36.9,12.4,35.2,14.2
		z"/>
</g>
</svg>
